<svg xmlns="http://www.w3.org/2000/svg" xmlns:xlink="http://www.w3.org/1999/xlink" viewBox="0,0,256,256" width="100px" height="100px"><g fill-opacity="0" fill="#dddddd" fill-rule="nonzero" stroke="none" stroke-width="1" stroke-linecap="butt" stroke-linejoin="miter" stroke-miterlimit="10" stroke-dasharray="" stroke-dashoffset="0" font-family="none" font-weight="none" font-size="none" text-anchor="none" style="mix-blend-mode: normal"><path d="M0,256v-256h256v256z" id="bgRectangle"></path></g><g fill="#ffffff" fill-rule="nonzero" stroke="none" stroke-width="1" stroke-linecap="butt" stroke-linejoin="miter" stroke-miterlimit="10" stroke-dasharray="" stroke-dashoffset="0" font-family="none" font-weight="none" font-size="none" text-anchor="none" style="mix-blend-mode: normal"><g transform="scale(5.12,5.12)"><path d="M25,2c-12.683,0 -23,10.318 -23,23c0,6.417 2.64544,12.22634 6.89844,16.40234l4.3418,-4.1543c-3.223,-3.096 -5.24023,-7.43705 -5.24023,-12.24805c0,-9.374 7.626,-17 17,-17c9.374,0 17,7.626 17,17c0,4.811 -2.01723,9.15205 -5.24023,12.24805l4.3418,4.1543c4.253,-4.176 6.89844,-9.98534 6.89844,-16.40234c0,-12.682 -10.317,-23 -23,-23zM32.23242,15.23242l-12.23242,10.76758l5,5l10.76758,-12.23242z"></path></g></g></svg>