<svg width="98" height="49" viewBox="0 0 98 49" fill="none" xmlns="http://www.w3.org/2000/svg"><path d="M75.727 42.318H24.5c-9.844 0-17.818-7.974-17.818-17.818S14.656 6.682 24.5 6.682h55.682c6.147 0 11.136 4.989 11.136 11.136S86.33 28.954 80.182 28.954H33.409a4.47 4.47 0 0 1-4.454-4.454 4.47 4.47 0 0 1 4.454-4.454h42.318v-6.682H33.41c-6.147 0-11.136 4.989-11.136 11.136s4.989 11.136 11.136 11.136h46.773C90.026 35.636 98 27.663 98 17.818 98 7.974 90.026 0 80.182 0H24.5C10.958 0 0 10.958 0 24.5S10.958 49 24.5 49h51.227z" fill="#fff"/></svg>