<svg xmlns="http://www.w3.org/2000/svg" data-name="Layer 1" width="972.004" height="639.896" viewBox="0 0 972.004 639.896"><path d="M634.374 279.406q-1.68 8.835-4.03 17.49c-.17.67-.36 1.33-.55 2h-21.79a7.01 7.01 0 0 0-7 7v62.12c-.66 1.23-1.33 2.45-2 3.67-3.46 6.3-7.06 12.53-10.74 18.68a710.14 710.14 0 0 1-243.69 243.55l5.92-13.36-6.52-.45c-47.25-3.23-94.66-6.81-140.8-17.43-48.27-11.11-95.49-30.38-133.32-62.33-37.84-31.96-65.58-77.6-69.43-126.98a144.9 144.9 0 0 1 5.07-50.41c8.87-31.52 28.25-59.88 56.21-76.66 43.92-26.35 101.21-20.98 147.51.94 46.29 21.91 83.97 58.18 120.76 93.82a466.4 466.4 0 0 0-150.91-157.52c-20.56-13.16-42.38-24.88-59.86-41.93-17.47-17.04-30.36-40.93-27.27-65.14 3.51-27.46 26-48.3 48.53-64.37 9-6.42 18.29-12.51 27.87-18.11 27.03-15.84 56.27-27.79 87.15-32.22 41.83-6.01 87.01 3.11 119.08 30.63 36.13 31.01 50.95 81.02 49.54 128.86 22.26-32.36 56.59-57.13 95.36-58.18 40.25-1.08 78.51 24.35 98.67 59.21 20.15 34.85 23.77 77.57 16.24 117.12" fill="#e6e6e6"/><path d="M379.716 413.8c23.575-2.075 45.352-4.5 68.196-10.965 22.144-6.266 43.451-16.755 59.215-33.882 16.955-18.422 26.107-42.346 32.564-66.161 3.6-13.278 6.559-26.742 9.35-40.21q4.543-21.92 8.073-44.034 7.027-44.017 10.033-88.553.363-5.406.666-10.816c.125-2.225-3.335-2.218-3.46 0q-2.47 43.9-8.885 87.457c-4.22 28.53-9.62 56.937-16.472 84.955-5.805 23.737-13.32 47.844-28.206 67.603-13.96 18.53-34.122 30.638-55.892 37.877-22.153 7.367-45.51 10.308-68.66 12.495-2.84.269-3.68.524-6.522.775-2.2.194-2.221 3.655 0 3.46M7.491 365.508a375 375 0 0 1 87.701 15.455 379 379 0 0 1 81.677 35.551 369.8 369.8 0 0 1 68.78 51.786 379 379 0 0 1 53.727 64.062 375 375 0 0 1 38.446 74.533q1.827 4.81 3.52 9.67c.73 2.09 4.073 1.191 3.336-.92a378.6 378.6 0 0 0-36.728-76.386 383.6 383.6 0 0 0-52.7-66.392 374 374 0 0 0-67.28-53.692 381.9 381.9 0 0 0-169.575-56.376q-5.446-.456-10.904-.75c-2.225-.122-2.218 3.338 0 3.46" fill="#fff"/><path d="M169.269 38.042a203.8 203.8 0 0 1 53.501 26.144 251.3 251.3 0 0 1 45.672 40.56 336.3 336.3 0 0 1 37.82 52.121 445 445 0 0 1 30.07 61.136 553 553 0 0 1 21.899 66.495 622 622 0 0 1 14.002 69.475 620 620 0 0 1 6.028 69.869 554 554 0 0 1-1.98 67.025 427 427 0 0 1-10.063 61.706 291.6 291.6 0 0 1-18.155 53.356q-2.696 5.841-5.722 11.52c-1.047 1.965 1.94 3.715 2.988 1.747a266.7 266.7 0 0 0 20.434-51.43 398 398 0 0 0 12.185-60.499 526 526 0 0 0 4.026-66.889 614 614 0 0 0-4.188-70.288 633 633 0 0 0-12.19-70.232 573 573 0 0 0-20.38-68.4 476 476 0 0 0-28.342-62.944 365 365 0 0 0-36.341-54.851 270.6 270.6 0 0 0-44.397-43.997 214.7 214.7 0 0 0-52.065-30.032q-6.846-2.725-13.882-4.929c-2.13-.67-3.04 2.67-.92 3.337" fill="#fff"/><ellipse cx="374.504" cy="629.896" rx="247.5" ry="10" fill="#e6e6e6"/><path d="M593.173 316.685a10.5 10.5 0 0 0-.24 1.64l-42.957 24.782-10.441-6.01-11.131 14.572 22.337 15.92 49.008-38.663a10.496 10.496 0 1 0-6.576-12.24" fill="#ffb8b8"/><path d="m495.34 331.89 33.825 24.107 15.128-18.968-32.88-26.382a13.324 13.324 0 0 0-19.19 2.659 13.324 13.324 0 0 0 3.117 18.583" fill="#1472ff"/><path fill="#ffb8b8" d="m425.519 606.957 11.86 3.107 17.63-44.264-17.503-4.587z"/><path d="m457.365 627.07-37.272-9.767 3.773-14.4 22.872 5.993a14.887 14.887 0 0 1 10.627 18.174" fill="#2f2e41"/><path fill="#ffb8b8" d="m530.942 615.401 12.069-2.156-2.572-47.577-17.812 3.182z"/><path d="m568.288 620.294-37.93 6.776-2.618-14.655 23.276-4.158a14.887 14.887 0 0 1 17.272 12.037m-61.111-354.786c2.974.724 5.394 3.755 6.847 7.265a50.7 50.7 0 0 1 2.704 11.415c1.142 7.257 2.238 15.113-.123 21.834-2.768 7.877-10.142 12.003-16.54 10.064s-11.484-9.217-13.222-17.594a42.6 42.6 0 0 1 2.925-25.085c1.817-4.137 4.321-7.953 7.65-9.82a7.55 7.55 0 0 1 10.068 2.098m16.518 131.211 22.977 205.794-18.977 7.206-35-138-48.728 126.178-20.772 1.154s28.5-196.332 49.622-200.794Z" fill="#2f2e41"/><circle cx="504.705" cy="267.211" r="24.561" fill="#ffb8b8"/><path d="m515.246 302.076-26.541-3.462s-17.31 20.771-16.156 56.545-2.885 46.737-2.885 46.737l55.34 1c-8-11 25.462-74.177-9.758-100.82" fill="#1472ff"/><path d="M529.504 407.896a10.5 10.5 0 0 0-1.651.142l-33.955-36.146 3.462-11.54-16.733-7.5-10.386 25.387 48.852 38.86a10.496 10.496 0 1 0 10.411-9.203" fill="#ffb8b8"/><path d="m492.315 316.139-15.727 38.443 21.925 10.386 18.158-38.045a13.324 13.324 0 0 0-6.98-18.071 13.324 13.324 0 0 0-17.376 7.287" fill="#1472ff"/><path d="M498.28 289.54c3.849-2.22 4.26-7.576 3.736-11.988s-1.396-9.33 1.197-12.938c3.095-4.305 9.314-4.391 14.615-4.532s11.755-1.692 13.129-6.814c.907-3.384-1.034-7.016-3.82-9.14s-6.273-3.064-9.66-3.956c-7.58-1.997-15.406-4.01-23.167-2.913a29.535 29.535 0 0 0-25.163 32.98c1.256 9.851 3.078 14.153 1.882 18.496-2.227 8.09-11.83 13.288-12.022 21.677-.15 6.562 5.647 11.624 11.302 14.956 4.485 2.643 9.326 4.885 14.496 5.504s10.735-.566 14.585-4.07c4.967-4.519 6.196-12.068 4.772-18.63s-5.078-12.39-8.692-18.05" fill="#2f2e41"/><path d="M963.004 296.896h-355a9.014 9.014 0 0 0-9 9v228a9.014 9.014 0 0 0 9 9h355a9.014 9.014 0 0 0 9-9v-228a9.014 9.014 0 0 0-9-9m7 237a7.01 7.01 0 0 1-7 7h-355a7.01 7.01 0 0 1-7-7v-228a7.01 7.01 0 0 1 7-7h355a7.01 7.01 0 0 1 7 7Z" fill="#3f3d56"/><path d="M683.78 410.391h-56a8.51 8.51 0 0 1-8.5-8.5v-56a8.51 8.51 0 0 1 8.5-8.5h56a8.51 8.51 0 0 1 8.5 8.5v56a8.51 8.51 0 0 1-8.5 8.5" fill="#1472ff"/><path d="M944.515 469.9h-318a6.5 6.5 0 1 1 0-13h318a6.5 6.5 0 0 1 0 13m.214-31.5h-318a6.5 6.5 0 0 1 0-13h318a6.5 6.5 0 0 1 0 13m-157-43.01h-47a6.5 6.5 0 0 1 0-13h47a6.5 6.5 0 0 1 0 13m157-31.99h-204a6.5 6.5 0 0 1 0-13h204a6.5 6.5 0 0 1 0 13m-165 138.5H626.515a6.5 6.5 0 1 1 0-13H779.73a6.5 6.5 0 1 1 0 13" fill="#ccc"/></svg>