<svg width="75" height="36" viewBox="0 0 75 36" fill="none" xmlns="http://www.w3.org/2000/svg">
<path d="M14.7389 1.36303C14.2791 0.673947 13.3477 0.48812 12.6586 0.947973L1.42943 8.44167C0.740348 8.90153 0.554521 9.83292 1.01437 10.522C1.47422 11.2111 2.40561 11.3969 3.09469 10.937L13.0762 4.27598L19.7373 14.2575C20.1971 14.9465 21.1285 15.1324 21.8176 14.6725C22.5067 14.2127 22.6925 13.2813 22.2326 12.5922L14.7389 1.36303ZM73.5006 28.0341C61.9706 31.2472 45.2875 33.6965 32.5143 30.8179C26.1488 29.3833 20.9355 26.6676 17.7298 22.2547C14.5468 17.8727 13.1538 11.5535 14.9622 2.48914L12.0202 1.90217C10.1005 11.5242 11.4894 18.7683 15.3026 24.0178C19.0933 29.2362 25.0907 32.2201 31.8548 33.7445C45.3407 36.7838 62.5918 34.1884 74.306 30.924L73.5006 28.0341Z" fill="white"/>
</svg>
