<svg width="75" height="34" viewBox="0 0 75 34" fill="none" xmlns="http://www.w3.org/2000/svg">
<path d="M61.2698 33.1486C61.7649 33.8128 62.7047 33.9499 63.3689 33.4547L74.1925 25.3862C74.8566 24.8911 74.9937 23.9513 74.4986 23.2871C74.0035 22.6229 73.0636 22.4859 72.3995 22.981L62.7785 30.153L55.6065 20.5321C55.1114 19.8679 54.1716 19.7309 53.5074 20.226C52.8432 20.7211 52.7062 21.6609 53.2013 22.3251L61.2698 33.1486ZM1.19844 9.57502C12.5454 5.76563 29.0782 2.45049 41.9841 4.65978C48.4156 5.76078 53.7634 8.2012 57.1946 12.4412C60.6016 16.6514 62.3219 22.8895 60.9881 32.0357L63.9567 32.4686C65.3726 22.7596 63.6082 15.5977 59.5266 10.554C55.4692 5.54011 49.3245 2.87273 42.4902 1.7028C28.8643 -0.629769 11.7719 2.86076 0.243647 6.73102L1.19844 9.57502Z" fill="white"/>
</svg>
