<svg width="63" height="35" viewBox="0 0 63 35" fill="none" xmlns="http://www.w3.org/2000/svg">
<path d="M11.2181 34.639C11.847 35.1781 12.794 35.1053 13.3331 34.4763L22.1189 24.2264C22.658 23.5974 22.5851 22.6504 21.9562 22.1113C21.3272 21.5721 20.3802 21.645 19.8411 22.274L12.0316 31.385L2.92051 23.5755C2.29152 23.0364 1.34457 23.1092 0.805436 23.7382C0.266301 24.3672 0.33914 25.3141 0.968126 25.8533L11.2181 34.639ZM62.661 8.18335C60.4008 6.27784 55.8497 4.01164 50.4651 2.37383C45.0457 0.725414 38.5765 -0.350352 32.4213 0.283278C26.2486 0.918699 20.2835 3.29114 16.1218 8.6407C11.9734 13.9733 9.80689 22.0215 10.6987 33.6151L13.6898 33.3851C12.8317 22.2286 14.9588 15.0215 18.4897 10.4828C22.0074 5.96101 27.1076 3.84613 32.7285 3.26751C38.3667 2.6871 44.4192 3.67059 49.5921 5.244C54.7998 6.82802 58.9116 8.94623 60.7273 10.477L62.661 8.18335Z" fill="white"/>
</svg>
