<svg xmlns="http://www.w3.org/2000/svg" viewBox="0 0 256 256" width="100" height="100"><path d="M0 256V0h256v256z" fill="none" font-family="none" font-weight="none" font-size="none" text-anchor="none" style="mix-blend-mode:normal"/><path d="M25 2C12.317 2 2 12.318 2 25c0 6.417 2.645 12.226 6.898 16.402l4.342-4.154C10.017 34.152 8 29.811 8 25c0-9.374 7.626-17 17-17s17 7.626 17 17c0 4.811-2.017 9.152-5.24 12.248l4.342 4.154C45.355 37.226 48 31.417 48 25 48 12.318 37.683 2 25 2m7.232 13.232L20 26l5 5 10.768-12.232z" transform="scale(5.12)" fill="#fff" font-family="none" font-weight="none" font-size="none" text-anchor="none" style="mix-blend-mode:normal"/></svg>