<svg xmlns="http://www.w3.org/2000/svg" data-name="Layer 1" width="847.62" height="386.288" viewBox="0 0 847.62 386.288"><circle cx="779.266" cy="180.31" r="38" fill="#f2f2f2"/><circle cx="779.266" cy="180.31" r="10" fill="#e6e6e6"/><path d="M777.44 180.523c4.211 3.437 5.495 8.853 4.711 14.083a24.45 24.45 0 0 1-8.394 14.68c-5.009 4.453-11.119 7.462-17.014 10.542a124 124 0 0 0-15.575 9.455c-18.961 13.78-33.286 33.403-41.484 55.3-8.184 21.86-10.38 46.672-4.161 69.327 3.077 11.21 9.302 23.303 20.898 27.521 9.244 3.362 21.864 1.196 26.57-8.33 5.057-10.234-1.997-21.738-11.084-26.818-11.778-6.586-25.847-1.773-36.44 4.893-11.664 7.339-21.04 17.87-33.216 24.448a41.74 41.74 0 0 1-17.844 5.205 44.7 44.7 0 0 1-16.909-2.612 57.27 57.27 0 0 1-27.661-21.471c-7.735-11.243-11.197-25.025-11.828-38.525-1.413-30.206 10.52-58.465 20.094-86.478a264 264 0 0 0 11.519-44.86 232.4 232.4 0 0 0 2.545-46.388c-.633-13.713-1.986-28.054-8.039-40.579-5.322-11.013-15.049-20.027-27.346-22.3a27.3 27.3 0 0 0-16.44 1.89c-1.754.8-.231 3.386 1.514 2.59 10.883-4.965 23.746-.135 31.784 7.881 9.387 9.36 12.834 23.184 14.364 35.94a225.6 225.6 0 0 1-7.968 89.992c-8.347 28.352-21.476 55.521-24.506 85.226-1.382 13.554-.672 27.567 3.66 40.565a63.36 63.36 0 0 0 20.079 29.565c8.842 7.149 19.72 12.019 31.171 12.561 12.854.61 24.127-5.121 34.1-12.744 10.68-8.165 20.508-18.239 33.447-22.817 5.898-2.087 12.617-3.06 18.673-1.052a23.43 23.43 0 0 1 12.452 10.012c2.63 4.374 3.601 9.842 1.2 14.541-2.256 4.418-6.661 6.973-11.43 7.847a22.18 22.18 0 0 1-14.724-2.501c-5.224-2.984-9.047-7.991-11.725-13.281-5.34-10.55-7.134-23.108-7.407-34.817a115.3 115.3 0 0 1 4.349-33.853 119.46 119.46 0 0 1 36.089-57.53 106 106 0 0 1 13.974-10.288c5.38-3.316 11.123-5.966 16.607-9.095 5.397-3.078 10.716-6.757 14.432-11.823a25.44 25.44 0 0 0 4.887-14.95 16.77 16.77 0 0 0-5.803-13.073c-1.484-1.21-3.62.9-2.122 2.122" fill="#ccc"/><path d="M422.686 355.31a87.34 87.34 0 0 0 44.47 13.94 21 21 0 0 1-.95 1.96 25.1 25.1 0 0 1-7.6 8.55 24.97 24.97 0 0 1-39.34-20.42v-4.03Zm93.27 1.18v2.85a24.96 24.96 0 0 1-46.88 11.95 21 21 0 0 1-.99-2.01c.73.02 1.45.03 2.18.03a87.47 87.47 0 0 0 45.69-12.82m33.64-301.38c-.75-.11-1.51-.18-2.27-.23a83.98 83.98 0 0 1 1.67 62.71c.76-.09 1.51-.21 2.26-.35a31.502 31.502 0 0 0-1.66-62.13m-156.39-.23c-.76.05-1.52.12-2.27.23a31.502 31.502 0 0 0-1.66 62.13c.75.14 1.5.26 2.26.35a83.98 83.98 0 0 1 1.67-62.71" fill="#3f3d56"/><path d="M549.596 55.11a85.997 85.997 0 1 0 6.67 33.2 86.1 86.1 0 0 0-6.67-33.2m-.6 62.48a83.981 83.981 0 1 1 5.27-29.28 84.1 84.1 0 0 1-5.27 29.28" fill="#3f3d56"/><path d="M514.266 68.81h-88a17.5 17.5 0 0 0 0 35h88a17.5 17.5 0 0 0 0-35m-44 122.5a89.997 89.997 0 0 0-4.06 179.9c.95.05 1.91.08 2.87.08.4.02.79.02 1.19.02a90 90 0 0 0 0-180m45.69 165.18a87.47 87.47 0 0 1-45.69 12.82c-.73 0-1.45-.01-2.18-.03q-.465 0-.93-.03a88.051 88.051 0 1 1 48.8-12.76" fill="#3f3d56"/><path d="M533.433 259.143H494.1a10.334 10.334 0 0 1 0-20.667h39.333a10.334 10.334 0 0 1 0 20.667" fill="#3f3d56"/><circle cx="496.722" cy="248.81" r="5.244" fill="#f2f2f2"/><circle cx="513.766" cy="248.81" r="5.244" fill="#f2f2f2"/><circle cx="530.811" cy="248.81" r="5.244" fill="#1472ff"/><path d="M164.625 381.698c8.993-7.6 14.455-19.603 13.023-31.288s-10.305-22.429-21.814-24.91-24.627 4.388-28.123 15.63c-1.924-21.675-4.14-44.257-15.664-62.715-10.434-16.713-28.507-28.672-48.093-30.812s-40.208 5.941-52.424 21.4-15.206 37.934-6.65 55.683c6.302 13.075 17.913 22.805 30.079 30.721 38.812 25.256 86.96 33.789 132.772 27.046Z" fill="#f2f2f2"/><path d="M30.9 253.992a317.6 317.6 0 0 1 44.263 43.954 322 322 0 0 1 34.908 51.663 321 321 0 0 1 14.948 31.651c.898 2.2-2.675 3.158-3.562.982a315.3 315.3 0 0 0-28.808-54.505 317.3 317.3 0 0 0-38.636-47.73 317 317 0 0 0-25.726-23.403c-1.844-1.501.783-4.101 2.612-2.612" fill="#fff"/><circle cx="161.576" cy="35" r="31" fill="#2f2e41"/><path d="M277.194 148.511a10.8 10.8 0 0 1-2.149 2.373 11.002 11.002 0 0 1-16.227-2.498 10 10 0 0 1-.537-.937l-48.85-4.714a18.01 18.01 0 0 1-15.887-14.5l-2.773-14.616 19.065-2.966 3.42 11.708 47.629 11.7a10.5 10.5 0 0 1 1.17-.89 11.003 11.003 0 0 1 15.139 15.34" fill="#ffb8b8"/><path d="m214.428 120.594-21.296 5.753a4.505 4.505 0 0 1-5.518-3.17l-7.46-27.613a12.399 12.399 0 0 1 23.005-8.887l14.1 27.52a4.5 4.5 0 0 1-2.831 6.397" fill="#2f2e41"/><path fill="#ffb8b8" d="M202.092 374.133h12.259l5.833-47.288-18.095.001z"/><path d="m237.996 385.516-38.531.002V370.63l23.643-.001a14.887 14.887 0 0 1 14.888 14.886" fill="#2f2e41"/><path fill="#ffb8b8" d="m92.822 362.185 11.47 4.33 22.162-42.178-16.928-6.391z"/><path d="m122.39 385.517-36.047-13.61 5.259-13.927 22.12 8.352a14.887 14.887 0 0 1 8.668 19.185m79.315-22.367a4.5 4.5 0 0 1-4.276-3.115l-31.269-96.564a1.5 1.5 0 0 0-2.784-.177l-43.335 92.201a4.504 4.504 0 0 1-5.495 2.356l-17.067-5.69a4.51 4.51 0 0 1-2.928-5.418l26.545-100.547a229 229 0 0 0 6.003-32.427 73.5 73.5 0 0 1 23.717-46.877 34.2 34.2 0 0 0 10.766-20.462l.071-.503 38.874 6.137 24.623 200.93a4.52 4.52 0 0 1-3.296 4.89l-18.974 5.11a4.5 4.5 0 0 1-1.175.155" fill="#2f2e41"/><circle cx="173.891" cy="41.291" r="24.561" fill="#ffb8b8"/><path d="M198.111 156.349q-.116 0-.231-.006l-38.536-1.927a4.475 4.475 0 0 1-4.252-4.035l-5.265-51.328a23.172 23.172 0 0 1 29.325-24.67 22.5 22.5 0 0 1 8.246 4.242c27.108 22.262 18.367 62.598 15.042 74.43a4.48 4.48 0 0 1-4.329 3.294" fill="#1472ff"/><path d="M164.586 190.814a10.8 10.8 0 0 1-3.165-.474 11.002 11.002 0 0 1-6.91-14.894 10 10 0 0 1 .484-.967l-23.136-43.28a18.01 18.01 0 0 1 3.272-21.26l10.634-10.405 13.03 14.23-7.853 9.334 16.642 46.133a10.5 10.5 0 0 1 1.389.482 11.003 11.003 0 0 1-4.387 21.101" fill="#ffb8b8"/><path d="m153.062 123.094-16.587-14.544a4.505 4.505 0 0 1-.416-6.35l18.857-21.505a12.399 12.399 0 0 1 20.142 14.229l-15.103 26.984a4.5 4.5 0 0 1-6.894 1.186m5.025-57.944c2.241.794 4.989 1.494 6.752-.154 1.722-1.608 1.408-4.55.394-6.718s-2.587-4.096-3.07-6.456c-.69-3.38 1.096-6.893 3.647-9.098s5.762-3.362 8.897-4.476l17.193-6.112c4.256-1.513 8.842-3.29 11.223-7.271 3.446-5.76.296-13.995-5.357-17.357s-12.792-2.735-18.89-.371c-3.373 1.307-6.582 3.108-10.07 4.029-6.884 1.816-14.712.186-20.762 4.068-5.266 3.379-7.708 10.273-7.531 16.724s2.553 12.595 5.058 18.495c1.49 3.51 3.083 7.06 5.607 9.852s6.173 4.744 9.817 4.23Z" fill="#2f2e41"/><circle cx="135.576" cy="20" r="20" fill="#2f2e41"/><path data-name="Path 22" d="m297.788 135.45-.355-.048 1.337-9.723a5.68 5.68 0 0 0-4.854-6.401l-20.6-2.832a5.68 5.68 0 0 0-6.4 4.854l-7.333 53.34a5.68 5.68 0 0 0 4.854 6.402l20.6 2.831a5.68 5.68 0 0 0 6.4-4.854l5.045-36.697.355.05Z" fill="#3f3d56"/><path data-name="Path 23" d="m293.269 122.13-2.565-.352a1.922 1.922 0 0 1-2.124 2.381l-11.257-1.547a1.922 1.922 0 0 1-1.402-2.866l-2.396-.33a4.046 4.046 0 0 0-4.56 3.458l-6.983 50.804a4.046 4.046 0 0 0 3.457 4.56l19.744 2.714a4.046 4.046 0 0 0 4.56-3.458l6.983-50.804a4.046 4.046 0 0 0-3.457-4.56" fill="#fff"/><circle cx="279.266" cy="153.31" r="11" fill="#1472ff"/><path d="M278.176 157.506a1.14 1.14 0 0 1-.687-.228l-.012-.009-2.585-1.98a1.148 1.148 0 1 1 1.397-1.823l1.675 1.284 3.956-5.16a1.15 1.15 0 0 1 1.61-.213l-.024.034.025-.033a1.15 1.15 0 0 1 .213 1.61l-4.654 6.07a1.15 1.15 0 0 1-.914.448" fill="#fff"/><path d="M846.429 386.288H7.135a1.19 1.19 0 0 1 0-2.381h839.294a1.19 1.19 0 0 1 0 2.381" fill="#ccc"/></svg>