<svg width="534" height="160" viewBox="0 0 534 160" fill="none" xmlns="http://www.w3.org/2000/svg"><path d="M205.544 116.792q-27.904 0-40.96-9.344t-13.056-25.216v-1.536h28.16v.896q0 6.784 5.888 10.624 6.017 3.84 19.968 3.84 9.856 0 15.488-1.152 5.76-1.28 7.808-3.2 2.176-2.047 2.176-4.608 0-3.968-3.84-5.76-3.712-1.92-9.472-2.56-5.632-.64-15.488-1.152-15.488-.64-25.6-2.304-9.984-1.665-17.28-7.168-7.168-5.505-7.168-16.64 0-12.672 12.288-20.224 12.416-7.68 40.832-7.68 18.432 0 30.208 4.48 11.904 4.352 17.408 11.776 5.632 7.296 5.632 16.768v1.152h-28.16v-1.152q0-3.2-2.56-6.016-2.431-2.815-8.064-4.48-5.632-1.792-14.464-1.792-14.208 0-19.584 2.304t-5.376 6.144q0 3.2 3.328 4.736 3.456 1.536 8.576 2.048t14.72.896q15.744.384 26.24 1.92t18.176 7.296q7.808 5.76 7.808 17.408 0 13.313-12.8 21.504-12.672 8.192-40.832 8.192m110.144 0q-14.848 0-25.344-4.608-10.368-4.608-15.616-12.288-5.248-7.808-5.248-17.408t5.248-17.408 15.616-12.288q10.496-4.608 25.344-4.608t25.216 4.608q10.368 4.48 15.616 12.288 5.376 7.808 5.376 17.408t-5.376 17.408q-5.248 7.68-15.616 12.288t-25.216 4.608m0-19.072q7.04 0 11.904-2.048 4.992-2.048 7.424-5.504 2.56-3.456 2.56-7.68t-2.56-7.68q-2.432-3.585-7.424-5.632-4.865-2.048-11.904-2.048-7.168 0-12.032 2.048t-7.424 5.632q-2.432 3.456-2.432 7.68t2.432 7.68q2.56 3.456 7.424 5.504t12.032 2.048m73.338-46.208q0-3.712-1.664-5.248-1.536-1.536-5.76-1.536-2.304 0-4.096.512-1.663.511-3.456 1.536V26.68q3.328-1.664 7.424-2.304 4.224-.768 9.088-.768 8.832 0 13.696 1.92 4.992 1.92 7.04 5.888 2.176 3.968 2.176 10.88v69.376h-24.448zM364.194 115V95.032h70.912V115zm118.244 1.792q-14.848 0-25.344-4.608-10.368-4.608-15.616-12.288-5.248-7.808-5.248-17.408t5.248-17.408 15.616-12.288q10.496-4.608 25.344-4.608t25.216 4.608q10.368 4.48 15.616 12.288 5.376 7.808 5.376 17.408t-5.376 17.408q-5.248 7.68-15.616 12.288t-25.216 4.608m0-19.072q7.04 0 11.904-2.048 4.992-2.048 7.424-5.504 2.56-3.456 2.56-7.68t-2.56-7.68q-2.432-3.585-7.424-5.632-4.864-2.048-11.904-2.048-7.168 0-12.032 2.048t-7.424 5.632q-2.432 3.456-2.432 7.68t2.432 7.68q2.56 3.456 7.424 5.504t12.032 2.048" fill="#000"/><circle cx="28.829" cy="28.594" r="27.727" transform="rotate(6.282 28.829 28.594)" fill="#000"/><circle cx="106.293" cy="69.57" r="19.805" transform="rotate(6.282 106.293 69.57)" fill="#000"/><circle cx="19.856" cy="115.273" r="15.844" transform="rotate(6.282 19.856 115.273)" fill="#000"/><path fill="#000" d="m22.405 40.411 10.124 1.114-7.926 71.995-10.123-1.115z"/><path fill="#000" d="m93.389 71.016 4.897 8.93-71.255 39.076-4.897-8.93z"/></svg>