<svg width="553" height="567" viewBox="0 0 553 567" fill="none" xmlns="http://www.w3.org/2000/svg">
<path d="M117.317 244.69C182.109 251.74 240.416 205.538 247.549 141.494C254.682 77.4494 207.939 19.816 143.147 12.7657C78.3544 5.7154 20.0476 51.918 12.9149 115.962C5.78219 180.006 52.5246 237.64 117.317 244.69Z" fill="black"/>
<path d="M450.752 383.969C497.033 389.005 538.68 356.003 543.775 310.257C548.87 264.511 515.482 223.344 469.202 218.308C422.922 213.272 381.274 246.274 376.18 292.02C371.085 337.766 404.472 378.933 450.752 383.969Z" fill="black"/>
<path d="M84.6572 559.705C121.682 563.734 155 537.333 159.076 500.736C163.151 464.139 136.441 431.206 99.4171 427.177C62.3928 423.148 29.0745 449.55 24.9987 486.146C20.9229 522.743 47.6329 555.677 84.6572 559.705Z" fill="black"/>
<path d="M145.982 183.137L102.886 178.448L69.1489 481.369L112.245 486.059L145.982 183.137Z" fill="black"/>
<path d="M425.897 344.801L405.049 307.225L101.734 471.644L122.582 509.22L425.897 344.801Z" fill="black"/>
</svg>
