<svg width="990" height="998" viewBox="0 0 990 998" fill="none" xmlns="http://www.w3.org/2000/svg">
<rect width="990" height="998" rx="105" fill="white"/>
<path d="M285.23 447.369C370.41 456.658 447.062 395.788 456.439 311.412C465.816 227.037 404.367 151.107 319.188 141.818C234.008 132.53 157.356 193.4 147.979 277.775C138.602 362.151 200.051 438.081 285.23 447.369Z" fill="black"/>
<path d="M723.58 630.864C784.423 637.498 839.175 594.02 845.872 533.751C852.57 473.483 808.678 419.247 747.836 412.612C686.993 405.978 632.241 449.457 625.543 509.725C618.846 569.994 662.738 624.229 723.58 630.864Z" fill="black"/>
<path d="M242.294 862.389C290.968 867.697 334.77 832.914 340.128 784.7C345.487 736.485 310.372 693.096 261.698 687.789C213.024 682.481 169.223 717.264 163.864 765.479C158.506 813.693 193.62 857.082 242.294 862.389Z" fill="black"/>
<path d="M322.915 366.276L266.258 360.098L221.906 759.185L278.563 765.363L322.915 366.276Z" fill="black"/>
<path d="M690.904 579.262L663.497 529.757L264.744 746.373L292.152 795.878L690.904 579.262Z" fill="black"/>
</svg>
