<svg width="990" height="998" viewBox="0 0 990 998" fill="none" xmlns="http://www.w3.org/2000/svg"><rect width="990" height="998" rx="105" fill="#fff"/><path d="M285.23 447.369c85.18 9.289 161.832-51.581 171.209-135.957s-52.072-160.305-137.251-169.594c-85.18-9.288-161.832 51.582-171.209 135.957-9.377 84.376 52.072 160.306 137.251 169.594m438.35 183.495c60.843 6.634 115.595-36.844 122.292-97.113s-37.194-114.504-98.036-121.139c-60.843-6.634-115.595 36.845-122.293 97.113-6.697 60.269 37.195 114.504 98.037 121.139M242.294 862.389c48.674 5.308 92.476-29.475 97.834-77.689 5.359-48.215-29.756-91.604-78.43-96.911s-92.475 29.475-97.834 77.69c-5.358 48.214 29.756 91.603 78.43 96.91" fill="#000"/><path d="m322.915 366.276-56.657-6.178-44.352 399.087 56.657 6.178z" fill="#000"/><path d="m690.904 579.262-27.407-49.505-398.753 216.616 27.408 49.505z" fill="#000"/></svg>