<svg width="71" height="73" viewBox="0 0 71 73" fill="none" xmlns="http://www.w3.org/2000/svg"><path d="m49.906 48.09-12.545-7.38V23.992a2.66 2.66 0 0 0-2.68-2.657h-.223a2.657 2.657 0 0 0-2.68 2.657v17.419c0 1.291.67 2.51 1.824 3.173l13.587 8.082c1.266.738 2.904.37 3.648-.885.782-1.292.372-2.953-.93-3.69m19.767-37.789L58.208.854a3.75 3.75 0 0 0-5.25.48c-1.302 1.55-1.079 3.875.485 5.203l11.428 9.447a3.75 3.75 0 0 0 5.249-.48c1.34-1.55 1.117-3.874-.447-5.203M6.092 15.984 17.52 6.537c1.6-1.328 1.824-3.653.484-5.203C16.7-.253 14.356-.438 12.792.854L1.327 10.3C-.237 11.63-.46 13.955.88 15.505c1.303 1.586 3.648 1.77 5.212.48M35.5 6.574c-18.501 0-33.503 14.872-33.503 33.213C1.997 58.127 16.999 73 35.5 73s33.503-14.872 33.503-33.213S54.001 6.574 35.5 6.574m0 59.045c-14.37 0-26.058-11.587-26.058-25.832S21.13 13.955 35.5 13.955s26.058 11.587 26.058 25.832S49.87 65.619 35.5 65.619" fill="#fff"/></svg>