<svg width="32" height="32" viewBox="0 0 32 32" fill="none" xmlns="http://www.w3.org/2000/svg"><path fill-rule="evenodd" clip-rule="evenodd" d="M16 31c7.732 0 14-6.268 14-14S23.732 3 16 3 2 9.268 2 17c0 2.51.661 4.867 1.818 6.905L2 31l7.315-1.696A13.94 13.94 0 0 0 16 31m0-2.154c6.543 0 11.846-5.303 11.846-11.846 0-6.542-5.303-11.846-11.846-11.846C9.458 5.154 4.154 10.458 4.154 17c0 2.526.79 4.868 2.138 6.79L5.23 27.77l4.049-1.013a11.8 11.8 0 0 0 6.72 2.09" fill="#BFC8D0"/><path d="M28 16c0 6.627-5.373 12-12 12-2.528 0-4.873-.782-6.807-2.116L5.09 26.909l1.075-4.03A11.95 11.95 0 0 1 4 16C4 9.373 9.373 4 16 4s12 5.373 12 12" fill="url(#a)"/><path fill-rule="evenodd" clip-rule="evenodd" d="M16 30c7.732 0 14-6.268 14-14S23.732 2 16 2 2 8.268 2 16c0 2.51.661 4.867 1.818 6.905L2 30l7.315-1.696A13.94 13.94 0 0 0 16 30m0-2.154c6.543 0 11.846-5.303 11.846-11.846 0-6.542-5.303-11.846-11.846-11.846C9.458 4.154 4.154 9.458 4.154 16c0 2.526.79 4.868 2.138 6.79L5.23 26.77l4.049-1.013a11.8 11.8 0 0 0 6.72 2.09" fill="#fff"/><path d="M12.5 9.5c-.333-.669-.844-.61-1.36-.61-.921 0-2.359 1.105-2.359 3.16 0 1.684.742 3.528 3.243 6.286 2.414 2.662 5.585 4.039 8.218 3.992s3.175-2.312 3.175-3.078c0-.339-.21-.508-.356-.554-.897-.43-2.552-1.233-2.928-1.384-.377-.15-.573.054-.695.165-.342.325-1.019 1.284-1.25 1.5s-.578.106-.721.025c-.53-.213-1.964-.85-3.107-1.96-1.415-1.37-1.498-1.842-1.764-2.262-.213-.335-.057-.541.021-.632.305-.351.726-.894.914-1.164s.04-.679-.05-.934c-.387-1.097-.715-2.015-.981-2.55" fill="#fff"/><defs><linearGradient id="a" x1="26.5" y1="7" x2="4" y2="28" gradientUnits="userSpaceOnUse"><stop stop-color="#5BD066"/><stop offset="1" stop-color="#27B43E"/></linearGradient></defs></svg>