<svg width="925" height="556" viewBox="0 0 925 556" fill="none" xmlns="http://www.w3.org/2000/svg">
<path opacity="0.476632" fill-rule="evenodd" clip-rule="evenodd" d="M689.973 468.471C737.632 444.573 757.059 386.681 733.358 338.984C757.112 386.788 815.193 406.248 863.085 382.45C815.426 406.347 795.999 464.239 819.7 511.936C795.946 464.132 737.865 444.673 689.973 468.471Z" fill="#00D092"/>
<rect width="925" height="543" fill="#0B0B0B"/>
<rect x="0.5" y="0.5" width="924" height="542" stroke="white" stroke-opacity="0.31"/>
<path d="M89.2108 103.768C81.5948 103.768 74.8108 101.208 69.6908 96.472L75.1308 90.008C79.2908 93.592 84.0268 95.768 89.5948 95.768C94.3308 95.768 96.7628 93.592 96.7628 90.84C96.7628 87.704 94.2028 86.744 87.4828 85.208C78.2028 83.096 71.6108 80.472 71.6108 71.96C71.6108 63.832 78.2668 58.264 87.8668 58.264C95.0348 58.264 100.603 60.504 105.083 64.344L100.155 71.128C96.2508 67.992 91.8348 66.264 87.6108 66.264C83.5788 66.264 81.1468 68.376 81.1468 71C81.1468 74.2 83.7708 75.224 90.5548 76.76C100.027 78.872 106.299 81.688 106.299 89.816C106.299 98.2 99.9628 103.768 89.2108 103.768ZM128.431 95.512C131.055 95.512 134.255 94.296 136.047 92.568L141.999 98.648C139.055 101.72 133.359 103.768 128.495 103.768C118.639 103.768 110.959 96.536 110.959 86.36C110.959 76.376 118.319 69.144 127.983 69.144C138.351 69.144 144.431 77.016 144.431 89.496H120.559C121.647 93.08 124.527 95.512 128.431 95.512ZM128.367 77.4C124.847 77.4 121.903 79.448 120.687 82.776H135.471C134.575 79.512 132.143 77.4 128.367 77.4ZM172.704 69.912H182.048V103H172.704V98.84C170.72 101.848 167.008 103.768 162.72 103.768C155.552 103.768 150.432 98.456 150.432 90.968V69.912H159.456V88.984C159.456 93.08 162.016 95.896 165.728 95.896C169.632 95.896 172.64 93.08 172.64 89.496L172.704 89.688V69.912ZM202.481 103.768C197.169 103.768 191.537 101.976 187.569 98.776L191.601 92.312C194.545 94.424 198.257 96.024 202.673 96.024C205.169 96.024 206.961 95 206.961 93.528C206.961 91.48 204.529 90.84 201.137 89.944C194.353 88.28 189.105 86.424 189.041 79.896C188.977 73.624 194.161 69.144 201.969 69.144C206.705 69.144 211.377 70.808 215.025 73.24L211.249 79.896C208.241 78.04 204.785 76.952 201.969 76.952C199.665 76.952 198.065 77.784 198.065 78.936C198.065 80.728 199.409 81.24 203.889 82.456C209.585 83.928 215.921 85.848 215.921 93.08C215.921 99.608 210.609 103.768 202.481 103.768ZM249.409 76.056C251.585 71.768 255.681 69.144 260.737 69.144V77.016C253.825 77.016 249.409 80.984 249.409 87.192V103H240.065V69.912H249.409V76.056ZM281.633 103.768C271.777 103.768 263.521 95.832 263.521 86.424C263.521 77.016 271.777 69.144 281.633 69.144C291.425 69.144 299.617 77.016 299.617 86.424C299.617 95.832 291.425 103.768 281.633 103.768ZM281.633 95.896C286.561 95.896 290.721 91.544 290.721 86.424C290.721 81.304 286.561 77.016 281.633 77.016C276.641 77.016 272.481 81.304 272.481 86.424C272.481 91.544 276.641 95.896 281.633 95.896ZM326.356 69.144C335.188 69.144 341.588 76.312 341.588 86.424C341.588 96.6 335.188 103.768 326.356 103.768C321.748 103.768 317.908 101.784 315.284 98.328V103H305.94V58.264H315.284V74.52C317.908 71.128 321.748 69.144 326.356 69.144ZM323.668 95.896C328.852 95.896 332.5 91.992 332.5 86.424C332.5 80.92 328.852 77.016 323.668 77.016C319.124 77.016 315.796 80.344 315.284 85.144V87.704C315.796 92.568 319.124 95.896 323.668 95.896ZM353.886 66.2L360.606 56.792H368.35L375.134 66.2H369.31L364.446 61.464L359.646 66.2H353.886ZM364.446 103.768C354.59 103.768 346.334 95.832 346.334 86.424C346.334 77.016 354.59 69.144 364.446 69.144C374.238 69.144 382.43 77.016 382.43 86.424C382.43 95.832 374.238 103.768 364.446 103.768ZM364.446 95.896C369.374 95.896 373.534 91.544 373.534 86.424C373.534 81.304 369.374 77.016 364.446 77.016C359.454 77.016 355.294 81.304 355.294 86.424C355.294 91.544 359.454 95.896 364.446 95.896ZM401.168 103.768C395.856 103.768 390.224 101.976 386.256 98.776L390.288 92.312C393.232 94.424 396.944 96.024 401.36 96.024C403.856 96.024 405.648 95 405.648 93.528C405.648 91.48 403.216 90.84 399.824 89.944C393.04 88.28 387.792 86.424 387.728 79.896C387.664 73.624 392.848 69.144 400.656 69.144C405.392 69.144 410.064 70.808 413.712 73.24L409.936 79.896C406.928 78.04 403.472 76.952 400.656 76.952C398.352 76.952 396.752 77.784 396.752 78.936C396.752 80.728 398.096 81.24 402.576 82.456C408.272 83.928 414.608 85.848 414.608 93.08C414.608 99.608 409.296 103.768 401.168 103.768Z" fill="white"/>
<path d="M87.2 265V254.695H89.075L94.52 261.94V254.695H96.38V265H94.52L89.075 257.755V265H87.2ZM102.342 265.18C100.092 265.18 98.1869 263.32 98.1869 261.115C98.1869 258.91 100.092 257.065 102.342 257.065C104.592 257.065 106.497 258.91 106.497 261.115C106.497 263.32 104.592 265.18 102.342 265.18ZM102.342 263.62C103.617 263.62 104.697 262.48 104.697 261.115C104.697 259.765 103.617 258.625 102.342 258.625C101.052 258.625 99.9719 259.765 99.9719 261.115C99.9719 262.48 101.052 263.62 102.342 263.62ZM117.039 257.065C118.659 257.065 119.874 258.31 119.874 260.065V265H118.089V260.365C118.089 259.345 117.474 258.625 116.589 258.625C115.584 258.625 114.894 259.3 114.894 260.245V265H113.109V260.365C113.109 259.345 112.494 258.625 111.594 258.625C110.604 258.625 109.899 259.3 109.899 260.245V265H108.069V257.245H109.899V258.295C110.289 257.545 111.084 257.065 112.059 257.065C113.154 257.065 114.054 257.62 114.534 258.535C114.909 257.635 115.884 257.065 117.039 257.065ZM125.469 263.56C126.189 263.56 127.044 263.23 127.479 262.78L128.634 263.98C127.959 264.7 126.609 265.18 125.484 265.18C123.264 265.18 121.434 263.485 121.434 261.1C121.434 258.775 123.174 257.065 125.379 257.065C127.779 257.065 129.174 258.88 129.174 261.745H123.324C123.549 262.81 124.359 263.56 125.469 263.56ZM125.454 258.685C124.434 258.685 123.609 259.33 123.339 260.35H127.419C127.209 259.375 126.549 258.685 125.454 258.685Z" fill="white" fill-opacity="0.25"/>
<path d="M554.835 263.29H560.13V265H552.975V254.695H554.835V263.29ZM562.519 256.075C561.934 256.075 561.469 255.58 561.469 255.025C561.469 254.47 561.934 253.99 562.519 253.99C563.089 253.99 563.554 254.47 563.554 255.025C563.554 255.58 563.089 256.075 562.519 256.075ZM561.589 265V257.245H563.419V265H561.589ZM569.672 257.065C571.367 257.065 572.552 258.31 572.552 260.065V265H570.782V260.425C570.782 259.375 570.107 258.625 569.147 258.625C568.187 258.625 567.392 259.27 567.272 260.095V265H565.442V257.245H567.272V258.28C567.752 257.56 568.652 257.065 569.672 257.065ZM580.313 257.245H582.143V264.175C582.143 266.17 580.463 267.58 578.093 267.58C576.758 267.58 575.528 267.145 574.763 266.545L575.438 265.21C575.978 265.705 576.908 266.02 577.823 266.02C579.353 266.02 580.313 265.285 580.313 264.115V263.11C579.698 263.935 578.768 264.43 577.658 264.43C575.648 264.43 574.163 262.9 574.163 260.74C574.163 258.58 575.648 257.065 577.658 257.065C578.753 257.065 579.758 257.575 580.313 258.4V257.245ZM578.183 262.87C579.428 262.87 580.313 261.985 580.313 260.74C580.313 259.51 579.428 258.625 578.183 258.625C576.953 258.625 576.068 259.51 576.068 260.74C576.068 261.985 576.953 262.87 578.183 262.87ZM589.442 257.245H591.272V265H589.442V263.965C588.962 264.685 588.062 265.18 587.042 265.18C585.347 265.18 584.162 263.935 584.162 262.18V257.245H585.932V261.82C585.932 262.87 586.607 263.62 587.567 263.62C588.527 263.62 589.322 262.975 589.442 262.15V257.245ZM596.663 257.065C598.718 257.065 599.993 258.37 599.993 260.335V265H598.208V264.07C597.638 264.79 596.663 265.18 595.763 265.18C594.113 265.18 592.868 264.205 592.868 262.705C592.868 261.175 594.293 260.125 596.033 260.125C596.738 260.125 597.503 260.275 598.208 260.545V260.335C598.208 259.435 597.713 258.565 596.303 258.565C595.568 258.565 594.863 258.82 594.203 259.15L593.573 257.875C594.668 257.335 595.688 257.065 596.663 257.065ZM596.168 263.845C597.053 263.845 597.998 263.395 598.208 262.57V261.7C597.638 261.505 596.993 261.4 596.303 261.4C595.388 261.4 594.653 261.91 594.653 262.645C594.653 263.38 595.298 263.845 596.168 263.845ZM607.75 257.245H609.58V264.175C609.58 266.17 607.9 267.58 605.53 267.58C604.195 267.58 602.965 267.145 602.2 266.545L602.875 265.21C603.415 265.705 604.345 266.02 605.26 266.02C606.79 266.02 607.75 265.285 607.75 264.115V263.11C607.135 263.935 606.205 264.43 605.095 264.43C603.085 264.43 601.6 262.9 601.6 260.74C601.6 258.58 603.085 257.065 605.095 257.065C606.19 257.065 607.195 257.575 607.75 258.4V257.245ZM605.62 262.87C606.865 262.87 607.75 261.985 607.75 260.74C607.75 259.51 606.865 258.625 605.62 258.625C604.39 258.625 603.505 259.51 603.505 260.74C603.505 261.985 604.39 262.87 605.62 262.87ZM615.243 263.56C615.963 263.56 616.818 263.23 617.253 262.78L618.408 263.98C617.733 264.7 616.383 265.18 615.258 265.18C613.038 265.18 611.208 263.485 611.208 261.1C611.208 258.775 612.948 257.065 615.153 257.065C617.553 257.065 618.948 258.88 618.948 261.745H613.098C613.323 262.81 614.133 263.56 615.243 263.56ZM615.228 258.685C614.208 258.685 613.383 259.33 613.113 260.35H617.193C616.983 259.375 616.323 258.685 615.228 258.685ZM629.489 257.065C631.109 257.065 632.324 258.31 632.324 260.065V265H630.539V260.365C630.539 259.345 629.924 258.625 629.039 258.625C628.034 258.625 627.344 259.3 627.344 260.245V265H625.559V260.365C625.559 259.345 624.944 258.625 624.044 258.625C623.054 258.625 622.349 259.3 622.349 260.245V265H620.519V257.245H622.349V258.295C622.739 257.545 623.534 257.065 624.509 257.065C625.604 257.065 626.504 257.62 626.984 258.535C627.359 257.635 628.334 257.065 629.489 257.065Z" fill="white" fill-opacity="0.25"/>
<path d="M700.2 265V254.695H703.83C707.235 254.695 709.635 256.825 709.635 259.84C709.635 262.855 707.235 265 703.83 265H700.2ZM702.075 263.305H704.025C706.2 263.305 707.73 261.865 707.73 259.84C707.73 257.815 706.2 256.39 704.025 256.39H702.075V263.305ZM714.791 257.065C716.846 257.065 718.121 258.37 718.121 260.335V265H716.336V264.07C715.766 264.79 714.791 265.18 713.891 265.18C712.241 265.18 710.996 264.205 710.996 262.705C710.996 261.175 712.421 260.125 714.161 260.125C714.866 260.125 715.631 260.275 716.336 260.545V260.335C716.336 259.435 715.841 258.565 714.431 258.565C713.696 258.565 712.991 258.82 712.331 259.15L711.701 257.875C712.796 257.335 713.816 257.065 714.791 257.065ZM714.296 263.845C715.181 263.845 716.126 263.395 716.336 262.57V261.7C715.766 261.505 715.121 261.4 714.431 261.4C713.516 261.4 712.781 261.91 712.781 262.645C712.781 263.38 713.426 263.845 714.296 263.845ZM723.973 263.335L724.498 264.565C724.063 264.94 723.433 265.18 722.848 265.18C721.558 265.18 720.658 264.25 720.658 262.945V258.76H719.533V257.245H720.658V255.115H722.443V257.245H724.198V258.76H722.443V262.72C722.443 263.245 722.773 263.62 723.208 263.62C723.523 263.62 723.808 263.5 723.973 263.335ZM729.293 257.065C731.348 257.065 732.623 258.37 732.623 260.335V265H730.838V264.07C730.268 264.79 729.293 265.18 728.393 265.18C726.743 265.18 725.498 264.205 725.498 262.705C725.498 261.175 726.923 260.125 728.663 260.125C729.368 260.125 730.133 260.275 730.838 260.545V260.335C730.838 259.435 730.343 258.565 728.933 258.565C728.198 258.565 727.493 258.82 726.833 259.15L726.203 257.875C727.298 257.335 728.318 257.065 729.293 257.065ZM728.798 263.845C729.683 263.845 730.628 263.395 730.838 262.57V261.7C730.268 261.505 729.623 261.4 728.933 261.4C728.018 261.4 727.283 261.91 727.283 262.645C727.283 263.38 727.928 263.845 728.798 263.845Z" fill="white" fill-opacity="0.25"/>
<path d="M72 278C71.4477 278 71 278.448 71 279C71 279.552 71.4477 280 72 280V278ZM72 280H873.5V278H72V280Z" fill="white" fill-opacity="0.05"/>
<path d="M97.4034 173L96.3634 170.52H89.7234L88.6834 173H85.9034L91.6434 159.26H94.4234L100.163 173H97.4034ZM90.6234 168.36H95.4634L93.0434 162.58L90.6234 168.36ZM107.063 170.78L107.763 172.42C107.183 172.92 106.343 173.24 105.562 173.24C103.843 173.24 102.643 172 102.643 170.26V164.68H101.143V162.66H102.643V159.82H105.023V162.66H107.363V164.68H105.023V169.96C105.023 170.66 105.463 171.16 106.043 171.16C106.463 171.16 106.843 171 107.063 170.78ZM110.896 161.1C110.116 161.1 109.496 160.44 109.496 159.7C109.496 158.96 110.116 158.32 110.896 158.32C111.656 158.32 112.276 158.96 112.276 159.7C112.276 160.44 111.656 161.1 110.896 161.1ZM109.656 173V162.66H112.096V173H109.656ZM118.253 173L113.813 162.66H116.393L119.393 170.18L122.333 162.66H124.933L120.553 173H118.253ZM131.16 173.24C128.16 173.24 125.62 170.76 125.62 167.82C125.62 164.88 128.16 162.42 131.16 162.42C134.16 162.42 136.7 164.88 136.7 167.82C136.7 170.76 134.16 173.24 131.16 173.24ZM131.16 171.16C132.86 171.16 134.3 169.64 134.3 167.82C134.3 166.02 132.86 164.5 131.16 164.5C129.44 164.5 128 166.02 128 167.82C128 169.64 129.44 171.16 131.16 171.16ZM142.637 173.24C141.057 173.24 139.357 172.68 138.117 171.68L139.217 169.98C140.217 170.7 141.377 171.18 142.677 171.18C143.657 171.18 144.337 170.76 144.337 170.12C144.337 169.32 143.437 169.06 142.257 168.74C140.017 168.16 138.597 167.52 138.577 165.68C138.577 163.74 140.177 162.42 142.477 162.42C143.897 162.42 145.317 162.92 146.437 163.66L145.417 165.44C144.437 164.82 143.377 164.5 142.477 164.5C141.617 164.5 140.957 164.84 140.957 165.42C140.957 166.08 141.497 166.28 143.077 166.74C144.817 167.22 146.697 167.82 146.697 169.98C146.697 171.96 145.057 173.24 142.637 173.24Z" fill="white"/>
<path d="M693.269 172V161.008H698.053C700.405 161.008 702.165 162.512 702.165 164.656C702.165 166.8 700.405 168.304 698.053 168.304H695.269V172H693.269ZM695.269 166.464H697.829C699.189 166.464 700.133 165.776 700.133 164.656C700.133 163.536 699.189 162.848 697.829 162.848H695.269V166.464ZM705.674 165.328C706.202 164.224 707.274 163.536 708.634 163.536V165.2C706.858 165.2 705.674 166.256 705.674 167.824V172H703.722V163.728H705.674V165.328ZM713.877 172.192C711.477 172.192 709.445 170.208 709.445 167.856C709.445 165.504 711.477 163.536 713.877 163.536C716.277 163.536 718.309 165.504 718.309 167.856C718.309 170.208 716.277 172.192 713.877 172.192ZM713.877 170.528C715.237 170.528 716.389 169.312 716.389 167.856C716.389 166.416 715.237 165.2 713.877 165.2C712.501 165.2 711.349 166.416 711.349 167.856C711.349 169.312 712.501 170.528 713.877 170.528ZM723.986 172.192C721.602 172.192 719.57 170.208 719.57 167.856C719.57 165.504 721.602 163.536 724.018 163.536C725.266 163.536 726.37 164.064 727.154 164.88L725.842 166.032C725.394 165.536 724.706 165.2 724.002 165.2C722.642 165.2 721.506 166.416 721.506 167.856C721.506 169.312 722.642 170.528 724.002 170.528C724.722 170.528 725.426 170.192 725.89 169.664L727.202 170.8C726.402 171.648 725.298 172.192 723.986 172.192ZM734.336 163.728H736.288V172H734.336V170.896C733.824 171.664 732.864 172.192 731.776 172.192C729.968 172.192 728.704 170.864 728.704 168.992V163.728H730.592V168.608C730.592 169.728 731.312 170.528 732.336 170.528C733.36 170.528 734.208 169.84 734.336 168.96V163.728ZM740.439 165.328C740.967 164.224 742.039 163.536 743.399 163.536V165.2C741.623 165.2 740.439 166.256 740.439 167.824V172H738.487V163.728H740.439V165.328ZM748.445 163.536C750.637 163.536 751.997 164.928 751.997 167.024V172H750.093V171.008C749.485 171.776 748.445 172.192 747.485 172.192C745.725 172.192 744.397 171.152 744.397 169.552C744.397 167.92 745.917 166.8 747.773 166.8C748.525 166.8 749.341 166.96 750.093 167.248V167.024C750.093 166.064 749.565 165.136 748.061 165.136C747.277 165.136 746.525 165.408 745.821 165.76L745.149 164.4C746.317 163.824 747.405 163.536 748.445 163.536ZM747.917 170.768C748.861 170.768 749.869 170.288 750.093 169.408V168.48C749.485 168.272 748.797 168.16 748.061 168.16C747.085 168.16 746.301 168.704 746.301 169.488C746.301 170.272 746.989 170.768 747.917 170.768ZM756.111 165.328C756.639 164.224 757.711 163.536 759.071 163.536V165.2C757.295 165.2 756.111 166.256 756.111 167.824V172H754.159V163.728H756.111V165.328ZM769.929 163.536C772.121 163.536 773.721 165.328 773.721 167.856C773.721 170.4 772.121 172.192 769.929 172.192C768.697 172.192 767.705 171.632 767.049 170.688V174.752H765.097V163.728H767.049V165.04C767.705 164.096 768.697 163.536 769.929 163.536ZM769.401 170.528C770.793 170.528 771.785 169.408 771.785 167.856C771.785 166.304 770.793 165.2 769.401 165.2C768.025 165.2 767.065 166.304 767.065 167.856C767.065 169.408 768.025 170.528 769.401 170.528ZM779.486 172.192C777.086 172.192 775.054 170.208 775.054 167.856C775.054 165.504 777.086 163.536 779.486 163.536C781.886 163.536 783.918 165.504 783.918 167.856C783.918 170.208 781.886 172.192 779.486 172.192ZM779.486 170.528C780.846 170.528 781.998 169.312 781.998 167.856C781.998 166.416 780.846 165.2 779.486 165.2C778.11 165.2 776.958 166.416 776.958 167.856C776.958 169.312 778.11 170.528 779.486 170.528ZM787.611 165.328C788.139 164.224 789.211 163.536 790.571 163.536V165.2C788.795 165.2 787.611 166.256 787.611 167.824V172H785.659V163.728H787.611V165.328ZM805.605 172H803.333L800.741 168.304H798.613V172H796.613V161.008H801.397C803.749 161.008 805.509 162.512 805.509 164.656C805.509 166.32 804.437 167.6 802.853 168.096L805.605 172ZM798.613 162.848V166.464H801.173C802.533 166.464 803.477 165.776 803.477 164.656C803.477 163.536 802.533 162.848 801.173 162.848H798.613ZM811.252 172.192C808.852 172.192 806.82 170.208 806.82 167.856C806.82 165.504 808.852 163.536 811.252 163.536C813.652 163.536 815.684 165.504 815.684 167.856C815.684 170.208 813.652 172.192 811.252 172.192ZM811.252 170.528C812.612 170.528 813.764 169.312 813.764 167.856C813.764 166.416 812.612 165.2 811.252 165.2C809.876 165.2 808.724 166.416 808.724 167.856C808.724 169.312 809.876 170.528 811.252 170.528ZM822.257 163.536C824.449 163.536 826.049 165.328 826.049 167.856C826.049 170.4 824.449 172.192 822.257 172.192C821.025 172.192 820.033 171.632 819.377 170.688V172H817.425V160.816H819.377V165.04C820.033 164.096 821.025 163.536 822.257 163.536ZM821.729 170.528C823.121 170.528 824.113 169.408 824.113 167.856C824.113 166.304 823.121 165.2 821.729 165.2C820.353 165.2 819.393 166.304 819.393 167.856C819.393 169.408 820.353 170.528 821.729 170.528ZM829.334 162.8L830.982 160.496H832.646L834.326 162.8H833.046L831.814 161.536L830.598 162.8H829.334ZM831.814 172.192C829.414 172.192 827.382 170.208 827.382 167.856C827.382 165.504 829.414 163.536 831.814 163.536C834.214 163.536 836.246 165.504 836.246 167.856C836.246 170.208 834.214 172.192 831.814 172.192ZM831.814 170.528C833.174 170.528 834.326 169.312 834.326 167.856C834.326 166.416 833.174 165.2 831.814 165.2C830.438 165.2 829.286 166.416 829.286 167.856C829.286 169.312 830.438 170.528 831.814 170.528ZM840.995 172.192C839.731 172.192 838.371 171.744 837.379 170.944L838.259 169.584C839.059 170.16 839.987 170.544 841.027 170.544C841.811 170.544 842.355 170.208 842.355 169.696C842.355 169.056 841.635 168.848 840.691 168.592C838.899 168.128 837.763 167.616 837.747 166.144C837.747 164.592 839.027 163.536 840.867 163.536C842.003 163.536 843.139 163.936 844.035 164.528L843.219 165.952C842.435 165.456 841.587 165.2 840.867 165.2C840.179 165.2 839.651 165.472 839.651 165.936C839.651 166.464 840.083 166.624 841.347 166.992C842.739 167.376 844.243 167.856 844.243 169.584C844.243 171.168 842.931 172.192 840.995 172.192Z" fill="white" fill-opacity="0.25"/>
<path d="M57.5 199C56.9477 199 56.5 199.448 56.5 200C56.5 200.552 56.9477 201 57.5 201V199ZM57.5 201H859V199H57.5V201Z" fill="white" fill-opacity="0.15"/>
<path d="M57.5 198.5C56.6716 198.5 56 199.172 56 200C56 200.828 56.6716 201.5 57.5 201.5V198.5ZM57.5 201.5H175.5V198.5H57.5V201.5Z" fill="white"/>
<path d="M97.88 315L96.84 312.52H90.2L89.16 315H86.38L92.12 301.26H94.9L100.64 315H97.88ZM91.1 310.36H95.94L93.52 304.58L91.1 310.36ZM109.379 304.66H111.819V315H109.379V313.62C108.739 314.58 107.539 315.24 106.179 315.24C103.919 315.24 102.339 313.58 102.339 311.24V304.66H104.699V310.76C104.699 312.16 105.599 313.16 106.879 313.16C108.159 313.16 109.219 312.3 109.379 311.2V304.66ZM119.668 312.78L120.368 314.42C119.788 314.92 118.948 315.24 118.168 315.24C116.448 315.24 115.248 314 115.248 312.26V306.68H113.748V304.66H115.248V301.82H117.628V304.66H119.968V306.68H117.628V311.96C117.628 312.66 118.068 313.16 118.648 313.16C119.068 313.16 119.448 313 119.668 312.78ZM127.262 315.24C124.262 315.24 121.722 312.76 121.722 309.82C121.722 306.88 124.262 304.42 127.262 304.42C130.262 304.42 132.802 306.88 132.802 309.82C132.802 312.76 130.262 315.24 127.262 315.24ZM127.262 313.16C128.962 313.16 130.402 311.64 130.402 309.82C130.402 308.02 128.962 306.5 127.262 306.5C125.542 306.5 124.102 308.02 124.102 309.82C124.102 311.64 125.542 313.16 127.262 313.16ZM146.858 304.42C149.018 304.42 150.638 306.08 150.638 308.42V315H148.258V308.82C148.258 307.46 147.438 306.5 146.258 306.5C144.918 306.5 143.998 307.4 143.998 308.66V315H141.618V308.82C141.618 307.46 140.798 306.5 139.598 306.5C138.278 306.5 137.338 307.4 137.338 308.66V315H134.898V304.66H137.338V306.06C137.858 305.06 138.918 304.42 140.218 304.42C141.678 304.42 142.878 305.16 143.518 306.38C144.018 305.18 145.318 304.42 146.858 304.42ZM157.778 304.42C160.518 304.42 162.217 306.16 162.217 308.78V315H159.838V313.76C159.078 314.72 157.778 315.24 156.578 315.24C154.378 315.24 152.718 313.94 152.718 311.94C152.718 309.9 154.618 308.5 156.938 308.5C157.878 308.5 158.898 308.7 159.838 309.06V308.78C159.838 307.58 159.178 306.42 157.298 306.42C156.318 306.42 155.378 306.76 154.498 307.2L153.658 305.5C155.118 304.78 156.478 304.42 157.778 304.42ZM157.118 313.46C158.298 313.46 159.558 312.86 159.838 311.76V310.6C159.078 310.34 158.218 310.2 157.298 310.2C156.078 310.2 155.098 310.88 155.098 311.86C155.098 312.84 155.958 313.46 157.118 313.46ZM173.86 313.5C172.96 314.44 171.78 315.08 170.38 315.22L170.08 315.88H170.18C171.02 315.88 171.62 316.44 171.62 317.22C171.62 318.26 170.72 318.9 169.52 318.9C168.8 318.9 168.1 318.66 167.68 318.32L168.16 317.28C168.54 317.58 168.98 317.74 169.4 317.74C169.9 317.74 170.28 317.48 170.28 317.08C170.28 316.74 170.06 316.5 169.6 316.5C169.38 316.5 169.14 316.58 168.98 316.7L168.58 316.3L169.06 315.18C166.42 314.8 164.32 312.5 164.32 309.82C164.32 306.88 166.86 304.42 169.88 304.42C171.44 304.42 172.82 305.08 173.8 306.1L172.16 307.54C171.6 306.92 170.74 306.5 169.86 306.5C168.16 306.5 166.74 308.02 166.74 309.82C166.74 311.64 168.16 313.16 169.86 313.16C170.76 313.16 171.64 312.74 172.22 312.08L173.86 313.5ZM179.098 302.42C178.618 302.42 178.338 302.76 178.198 303.56L176.938 303.38C177.138 301.7 177.798 300.82 179.058 300.82C180.198 300.82 180.958 301.94 181.658 301.94C182.138 301.94 182.418 301.58 182.558 300.78L183.838 300.98C183.638 302.64 182.958 303.54 181.718 303.54C180.558 303.54 179.798 302.42 179.098 302.42ZM180.278 304.42C183.018 304.42 184.717 306.16 184.717 308.78V315H182.338V313.76C181.578 314.72 180.278 315.24 179.078 315.24C176.878 315.24 175.218 313.94 175.218 311.94C175.218 309.9 177.118 308.5 179.438 308.5C180.378 308.5 181.398 308.7 182.338 309.06V308.78C182.338 307.58 181.678 306.42 179.798 306.42C178.818 306.42 177.878 306.76 176.998 307.2L176.158 305.5C177.618 304.78 178.978 304.42 180.278 304.42ZM179.618 313.46C180.798 313.46 182.058 312.86 182.338 311.76V310.6C181.578 310.34 180.718 310.2 179.798 310.2C178.578 310.2 177.598 310.88 177.598 311.86C177.598 312.84 178.458 313.46 179.618 313.46ZM192.36 315.24C189.36 315.24 186.82 312.76 186.82 309.82C186.82 306.88 189.36 304.42 192.36 304.42C195.36 304.42 197.9 306.88 197.9 309.82C197.9 312.76 195.36 315.24 192.36 315.24ZM192.36 313.16C194.06 313.16 195.5 311.64 195.5 309.82C195.5 308.02 194.06 306.5 192.36 306.5C190.64 306.5 189.2 308.02 189.2 309.82C189.2 311.64 190.64 313.16 192.36 313.16ZM209.2 315L204.84 301.26H207.58L210.52 311.1L213.78 301.26H216.5L219.74 311.1L222.68 301.26H225.42L221.08 315H218.58L215.14 304.8L211.68 315H209.2ZM231.027 313.08C231.987 313.08 233.127 312.64 233.707 312.04L235.247 313.64C234.347 314.6 232.547 315.24 231.047 315.24C228.087 315.24 225.647 312.98 225.647 309.8C225.647 306.7 227.967 304.42 230.907 304.42C234.107 304.42 235.967 306.84 235.967 310.66H228.167C228.467 312.08 229.547 313.08 231.027 313.08ZM231.007 306.58C229.647 306.58 228.547 307.44 228.187 308.8H233.627C233.347 307.5 232.467 306.58 231.007 306.58ZM244.182 304.42C246.922 304.42 248.922 306.66 248.922 309.82C248.922 313 246.922 315.24 244.182 315.24C242.642 315.24 241.402 314.54 240.582 313.36V315H238.142V301.02H240.582V306.3C241.402 305.12 242.642 304.42 244.182 304.42ZM243.522 313.16C245.262 313.16 246.502 311.76 246.502 309.82C246.502 307.88 245.262 306.5 243.522 306.5C241.802 306.5 240.602 307.88 240.602 309.82C240.602 311.76 241.802 313.16 243.522 313.16Z" fill="white"/>
<rect x="552" y="296" width="100" height="27" rx="13.5" fill="#1472FF"/>
<path d="M575.136 314V303.008H579.92C582.272 303.008 584.032 304.512 584.032 306.656C584.032 308.8 582.272 310.304 579.92 310.304H577.136V314H575.136ZM577.136 308.464H579.696C581.056 308.464 582 307.776 582 306.656C582 305.536 581.056 304.848 579.696 304.848H577.136V308.464ZM587.221 316.88C586.597 316.88 585.909 316.72 585.413 316.448L585.829 315.04C586.181 315.232 586.581 315.344 586.885 315.344C587.349 315.344 587.701 315.2 587.941 314.8L588.293 314.064L584.789 305.728H586.853L589.269 311.904L591.541 305.728H593.557L590.053 314.576C589.429 316.144 588.469 316.864 587.221 316.88ZM599.247 312.224L599.807 313.536C599.343 313.936 598.671 314.192 598.047 314.192C596.671 314.192 595.711 313.2 595.711 311.808V307.344H594.511V305.728H595.711V303.456H597.615V305.728H599.487V307.344H597.615V311.568C597.615 312.128 597.967 312.528 598.431 312.528C598.767 312.528 599.071 312.4 599.247 312.224ZM605.834 305.536C607.642 305.536 608.906 306.864 608.906 308.736V314H607.018V309.12C607.018 308 606.298 307.2 605.274 307.2C604.17 307.2 603.258 308 603.258 308.992V314H601.306V302.816H603.258V306.864C603.754 306.064 604.73 305.536 605.834 305.536ZM615.025 314.192C612.625 314.192 610.593 312.208 610.593 309.856C610.593 307.504 612.625 305.536 615.025 305.536C617.425 305.536 619.457 307.504 619.457 309.856C619.457 312.208 617.425 314.192 615.025 314.192ZM615.025 312.528C616.385 312.528 617.537 311.312 617.537 309.856C617.537 308.416 616.385 307.2 615.025 307.2C613.649 307.2 612.497 308.416 612.497 309.856C612.497 311.312 613.649 312.528 615.025 312.528ZM625.662 305.536C627.47 305.536 628.734 306.864 628.734 308.736V314H626.846V309.12C626.846 308 626.126 307.2 625.102 307.2C624.078 307.2 623.23 307.888 623.102 308.768V314H621.15V305.728H623.102V306.832C623.614 306.064 624.574 305.536 625.662 305.536Z" fill="white"/>
<path d="M702.04 314V305.712L700.168 306.88L699.224 305.216L702.52 303.008H704.408V314H702.04ZM707.465 314L711.833 305.136H706.393V303.008H714.569V304.784L710.137 314H707.465ZM728.918 314L728.214 312.272H723.318L722.614 314H719.974L724.454 303.008H727.094L731.574 314H728.918ZM724.134 310.272H727.398L725.766 306.256L724.134 310.272ZM738.789 305.728H741.141V313.12C741.141 315.248 739.301 316.752 736.693 316.752C735.237 316.752 733.861 316.288 733.045 315.648L733.861 314C734.405 314.48 735.365 314.784 736.325 314.784C737.829 314.784 738.789 314.096 738.789 313.024V312.112C738.133 312.912 737.141 313.392 736.053 313.392C733.973 313.392 732.389 311.76 732.389 309.456C732.389 307.152 733.973 305.536 736.053 305.536C737.173 305.536 738.229 306.064 738.789 306.848V305.728ZM736.789 311.424C737.957 311.424 738.789 310.608 738.789 309.456C738.789 308.304 737.957 307.504 736.789 307.504C735.621 307.504 734.789 308.304 734.789 309.456C734.789 310.608 735.621 311.424 736.789 311.424ZM747.26 314.192C744.796 314.192 742.732 312.208 742.732 309.856C742.732 307.504 744.796 305.536 747.26 305.536C749.708 305.536 751.756 307.504 751.756 309.856C751.756 312.208 749.708 314.192 747.26 314.192ZM747.26 312.224C748.492 312.224 749.532 311.136 749.532 309.856C749.532 308.576 748.492 307.504 747.26 307.504C746.012 307.504 744.972 308.576 744.972 309.856C744.972 311.136 746.012 312.224 747.26 312.224ZM757.485 314V312.08L761.533 308.944C762.845 307.904 763.261 307.184 763.261 306.416C763.261 305.504 762.493 304.96 761.597 304.96C760.525 304.96 759.709 305.504 758.909 306.416L757.405 304.96C758.493 303.584 759.885 302.816 761.661 302.816C763.997 302.816 765.693 304.256 765.693 306.32C765.693 307.792 765.053 308.928 763.133 310.32L761.133 311.872H765.789V314H757.485ZM771.395 314.208C769.411 314.208 767.907 313.424 766.979 312.352L768.371 310.784C769.139 311.616 770.179 312.08 771.283 312.08C772.499 312.08 773.203 311.52 773.203 310.736C773.203 309.888 772.547 309.456 771.059 309.472H769.795V307.456L771.059 307.472C772.259 307.472 772.979 307.024 772.979 306.24C772.979 305.44 772.227 304.928 771.139 304.928C770.099 304.928 769.283 305.44 768.547 306.208L767.187 304.768C768.099 303.664 769.411 302.816 771.363 302.816C773.843 302.816 775.395 304.08 775.395 305.824C775.395 307.088 774.531 308 773.331 308.352C774.531 308.624 775.635 309.472 775.635 310.928C775.635 312.832 773.955 314.208 771.395 314.208Z" fill="white"/>
<rect x="72" y="339" width="812" height="56" rx="15" fill="white" fill-opacity="0.06"/>
<path d="M87.42 373V359.26H93.4C96.34 359.26 98.54 361.14 98.54 363.82C98.54 366.5 96.34 368.38 93.4 368.38H89.92V373H87.42ZM89.92 366.08H93.12C94.82 366.08 96 365.22 96 363.82C96 362.42 94.82 361.56 93.12 361.56H89.92V366.08ZM100.426 373V359.02H102.866V373H100.426ZM110.063 362.42C112.803 362.42 114.503 364.16 114.503 366.78V373H112.123V371.76C111.363 372.72 110.063 373.24 108.863 373.24C106.663 373.24 105.003 371.94 105.003 369.94C105.003 367.9 106.903 366.5 109.223 366.5C110.163 366.5 111.183 366.7 112.123 367.06V366.78C112.123 365.58 111.463 364.42 109.583 364.42C108.603 364.42 107.663 364.76 106.783 365.2L105.943 363.5C107.403 362.78 108.763 362.42 110.063 362.42ZM109.403 371.46C110.583 371.46 111.843 370.86 112.123 369.76V368.6C111.363 368.34 110.503 368.2 109.583 368.2C108.363 368.2 107.383 368.88 107.383 369.86C107.383 370.84 108.243 371.46 109.403 371.46ZM122.785 362.42C125.045 362.42 126.625 364.08 126.625 366.42V373H124.265V366.9C124.265 365.5 123.365 364.5 122.085 364.5C120.805 364.5 119.745 365.36 119.585 366.46V373H117.145V362.66H119.585V364.04C120.225 363.08 121.425 362.42 122.785 362.42ZM130.514 361.1C129.734 361.1 129.114 360.44 129.114 359.7C129.114 358.96 129.734 358.32 130.514 358.32C131.274 358.32 131.894 358.96 131.894 359.7C131.894 360.44 131.274 361.1 130.514 361.1ZM129.274 373V362.66H131.714V373H129.274ZM134.41 373V359.02H136.85V373H134.41ZM145.187 362.42C147.447 362.42 149.027 364.08 149.027 366.42V373H146.667V366.9C146.667 365.5 145.767 364.5 144.487 364.5C143.107 364.5 141.967 365.5 141.967 366.74V373H139.527V359.02H141.967V364.08C142.587 363.08 143.807 362.42 145.187 362.42ZM156.176 362.42C158.916 362.42 160.616 364.16 160.616 366.78V373H158.236V371.76C157.476 372.72 156.176 373.24 154.976 373.24C152.776 373.24 151.116 371.94 151.116 369.94C151.116 367.9 153.016 366.5 155.336 366.5C156.276 366.5 157.296 366.7 158.236 367.06V366.78C158.236 365.58 157.576 364.42 155.696 364.42C154.716 364.42 153.776 364.76 152.896 365.2L152.056 363.5C153.516 362.78 154.876 362.42 156.176 362.42ZM155.516 371.46C156.696 371.46 157.956 370.86 158.236 369.76V368.6C157.476 368.34 156.616 368.2 155.696 368.2C154.476 368.2 153.496 368.88 153.496 369.86C153.496 370.84 154.356 371.46 155.516 371.46ZM167.078 373.24C165.498 373.24 163.798 372.68 162.558 371.68L163.658 369.98C164.658 370.7 165.818 371.18 167.118 371.18C168.098 371.18 168.778 370.76 168.778 370.12C168.778 369.32 167.878 369.06 166.698 368.74C164.458 368.16 163.038 367.52 163.018 365.68C163.018 363.74 164.618 362.42 166.918 362.42C168.338 362.42 169.758 362.92 170.878 363.66L169.858 365.44C168.878 364.82 167.818 364.5 166.918 364.5C166.058 364.5 165.398 364.84 165.398 365.42C165.398 366.08 165.938 366.28 167.518 366.74C169.258 367.22 171.138 367.82 171.138 369.98C171.138 371.96 169.498 373.24 167.078 373.24Z" fill="white"/>
<rect x="552" y="354" width="100" height="27" rx="13.5" fill="#1472FF"/>
<path d="M575.136 372V361.008H579.92C582.272 361.008 584.032 362.512 584.032 364.656C584.032 366.8 582.272 368.304 579.92 368.304H577.136V372H575.136ZM577.136 366.464H579.696C581.056 366.464 582 365.776 582 364.656C582 363.536 581.056 362.848 579.696 362.848H577.136V366.464ZM587.221 374.88C586.597 374.88 585.909 374.72 585.413 374.448L585.829 373.04C586.181 373.232 586.581 373.344 586.885 373.344C587.349 373.344 587.701 373.2 587.941 372.8L588.293 372.064L584.789 363.728H586.853L589.269 369.904L591.541 363.728H593.557L590.053 372.576C589.429 374.144 588.469 374.864 587.221 374.88ZM599.247 370.224L599.807 371.536C599.343 371.936 598.671 372.192 598.047 372.192C596.671 372.192 595.711 371.2 595.711 369.808V365.344H594.511V363.728H595.711V361.456H597.615V363.728H599.487V365.344H597.615V369.568C597.615 370.128 597.967 370.528 598.431 370.528C598.767 370.528 599.071 370.4 599.247 370.224ZM605.834 363.536C607.642 363.536 608.906 364.864 608.906 366.736V372H607.018V367.12C607.018 366 606.298 365.2 605.274 365.2C604.17 365.2 603.258 366 603.258 366.992V372H601.306V360.816H603.258V364.864C603.754 364.064 604.73 363.536 605.834 363.536ZM615.025 372.192C612.625 372.192 610.593 370.208 610.593 367.856C610.593 365.504 612.625 363.536 615.025 363.536C617.425 363.536 619.457 365.504 619.457 367.856C619.457 370.208 617.425 372.192 615.025 372.192ZM615.025 370.528C616.385 370.528 617.537 369.312 617.537 367.856C617.537 366.416 616.385 365.2 615.025 365.2C613.649 365.2 612.497 366.416 612.497 367.856C612.497 369.312 613.649 370.528 615.025 370.528ZM625.662 363.536C627.47 363.536 628.734 364.864 628.734 366.736V372H626.846V367.12C626.846 366 626.126 365.2 625.102 365.2C624.078 365.2 623.23 365.888 623.102 366.768V372H621.15V363.728H623.102V364.832C623.614 364.064 624.574 363.536 625.662 363.536Z" fill="white"/>
<path d="M702.04 372V363.712L700.168 364.88L699.224 363.216L702.52 361.008H704.408V372H702.04ZM707.465 372L711.833 363.136H706.393V361.008H714.569V362.784L710.137 372H707.465ZM728.918 372L728.214 370.272H723.318L722.614 372H719.974L724.454 361.008H727.094L731.574 372H728.918ZM724.134 368.272H727.398L725.766 364.256L724.134 368.272ZM738.789 363.728H741.141V371.12C741.141 373.248 739.301 374.752 736.693 374.752C735.237 374.752 733.861 374.288 733.045 373.648L733.861 372C734.405 372.48 735.365 372.784 736.325 372.784C737.829 372.784 738.789 372.096 738.789 371.024V370.112C738.133 370.912 737.141 371.392 736.053 371.392C733.973 371.392 732.389 369.76 732.389 367.456C732.389 365.152 733.973 363.536 736.053 363.536C737.173 363.536 738.229 364.064 738.789 364.848V363.728ZM736.789 369.424C737.957 369.424 738.789 368.608 738.789 367.456C738.789 366.304 737.957 365.504 736.789 365.504C735.621 365.504 734.789 366.304 734.789 367.456C734.789 368.608 735.621 369.424 736.789 369.424ZM747.26 372.192C744.796 372.192 742.732 370.208 742.732 367.856C742.732 365.504 744.796 363.536 747.26 363.536C749.708 363.536 751.756 365.504 751.756 367.856C751.756 370.208 749.708 372.192 747.26 372.192ZM747.26 370.224C748.492 370.224 749.532 369.136 749.532 367.856C749.532 366.576 748.492 365.504 747.26 365.504C746.012 365.504 744.972 366.576 744.972 367.856C744.972 369.136 746.012 370.224 747.26 370.224ZM757.485 372V370.08L761.533 366.944C762.845 365.904 763.261 365.184 763.261 364.416C763.261 363.504 762.493 362.96 761.597 362.96C760.525 362.96 759.709 363.504 758.909 364.416L757.405 362.96C758.493 361.584 759.885 360.816 761.661 360.816C763.997 360.816 765.693 362.256 765.693 364.32C765.693 365.792 765.053 366.928 763.133 368.32L761.133 369.872H765.789V372H757.485ZM771.395 372.208C769.411 372.208 767.907 371.424 766.979 370.352L768.371 368.784C769.139 369.616 770.179 370.08 771.283 370.08C772.499 370.08 773.203 369.52 773.203 368.736C773.203 367.888 772.547 367.456 771.059 367.472H769.795V365.456L771.059 365.472C772.259 365.472 772.979 365.024 772.979 364.24C772.979 363.44 772.227 362.928 771.139 362.928C770.099 362.928 769.283 363.44 768.547 364.208L767.187 362.768C768.099 361.664 769.411 360.816 771.363 360.816C773.843 360.816 775.395 362.08 775.395 363.824C775.395 365.088 774.531 366 773.331 366.352C774.531 366.624 775.635 367.472 775.635 368.928C775.635 370.832 773.955 372.208 771.395 372.208Z" fill="white"/>
<path d="M673.254 171.423H671.911L671.435 170.946C673.101 168.933 674.104 166.32 674.104 163.477C674.104 157.138 669.156 152 663.052 152C656.948 152 652 157.138 652 163.477C652 169.816 656.948 174.954 663.052 174.954C665.789 174.954 668.306 173.912 670.244 172.182L670.703 172.676V174.071L679.205 182.882L681.738 180.251L673.254 171.423ZM663.052 171.423C658.818 171.423 655.401 167.874 655.401 163.477C655.401 159.08 658.818 155.531 663.052 155.531C667.286 155.531 670.703 159.08 670.703 163.477C670.703 167.874 667.286 171.423 663.052 171.423Z" fill="white" fill-opacity="0.15"/>
<rect x="809" y="301" width="42" height="17" rx="8.5" fill="white" stroke="white" stroke-width="2"/>
<ellipse cx="842.238" cy="309.5" rx="5.2381" ry="5.5" fill="black"/>
<rect x="809" y="359" width="42" height="17" rx="8.5" fill="white" stroke="white" stroke-width="2"/>
<ellipse cx="842.238" cy="367.5" rx="5.2381" ry="5.5" fill="black"/>
</svg>
